<?xml version="1.0" encoding="utf-8"?>
<!-- Generator: Adobe Illustrator 26.3.0, SVG Export Plug-In . SVG Version: 6.00 Build 0)  -->
<svg version="1.1" id="Ebene_1" xmlns="http://www.w3.org/2000/svg" xmlns:xlink="http://www.w3.org/1999/xlink" x="0px" y="0px"
	 viewBox="0 0 250 42" style="enable-background:new 0 0 250 42;" xml:space="preserve">
<style type="text/css">
	.st0{fill:#DDDDDD;}
	.st1{fill-rule:evenodd;clip-rule:evenodd;fill:#DDDDDD;}
	.st2{fill:#FFFFFF;}
	.st3{fill-rule:evenodd;clip-rule:evenodd;fill:#FFFFFF;}
</style>
<g>
	<path class="st0" d="M164.4,29.7l-0.5-12.9c-0.1-3.6-2.4-6.2-6.1-6.1c-2.9,0.1-5.1,1.9-5.9,4.2l-0.1,0c-0.7-3.3-3.4-3.9-5.1-3.8
		c-4,0.1-5,2.5-5.7,3.8l-0.1,0l-0.1-3.2l-2.2,0.1c0.2,1.5,0.3,3,0.3,4.4l0.5,14.3l2.3-0.1l-0.4-10.4c-0.2-4.7,2.3-6.9,4.8-7
		c3-0.1,4,2,4.1,4.6l0.4,12.5l2.3-0.1l-0.4-10.4c-0.2-4.7,2.3-6.9,4.8-7c3-0.1,4,2,4.1,4.6l0.4,12.5L164.4,29.7L164.4,29.7z"/>
	<path class="st1" d="M182.5,26.1c-1.1,0.7-3.5,1.5-5.2,1.6c-4,0.1-6.3-3-6.4-7l12.8-0.4l0-1.2c-0.2-5-2.5-9.2-7.8-9
		c-4.7,0.2-7.8,4.4-7.6,10.1c0.2,5.6,2.7,9.7,8.9,9.5c1.7-0.1,3.8-0.5,5.4-1.2L182.5,26.1L182.5,26.1z M170.8,18.7
		c-0.1-3.1,1.9-6.6,5.3-6.7c3.5-0.1,4.9,3.1,5,6.3L170.8,18.7L170.8,18.7z"/>
	<path class="st1" d="M202.3,0.7L200,0.8l0.4,12l-0.1,0c-0.4-0.9-2.3-3.5-6-3.4c-5.5,0.2-7.6,4.4-7.4,10.1c0.2,5.6,2.9,9.7,8.1,9.5
		c2.7-0.1,4.6-1.2,5.7-3.6l0.1,0l0.1,3l2.3-0.1L202.3,0.7L202.3,0.7z M189.5,19.4c-0.1-3.6,0.9-7.9,5.3-8c4.1-0.1,5.7,4.2,5.8,7.6
		c0.1,3.4-1.2,7.9-5.3,8C190.9,27.2,189.6,23.1,189.5,19.4L189.5,19.4z"/>
	<path class="st1" d="M208.8,28.1l2.3-0.1l-0.7-18.8l-2.3,0.1L208.8,28.1L208.8,28.1z M210.2,1.2l-2.3,0.1l0.1,3.1l2.3-0.1
		L210.2,1.2L210.2,1.2z"/>
	<path class="st1" d="M229.5,24.5c-1.1,0.7-3.5,1.5-5.2,1.6c-4,0.1-6.3-3-6.4-7l12.8-0.4l0-1.2c-0.2-5-2.5-9.2-7.8-9
		c-4.7,0.2-7.8,4.4-7.6,10.1c0.2,5.6,2.7,9.7,8.9,9.5c1.7-0.1,3.8-0.5,5.4-1.2L229.5,24.5L229.5,24.5z M217.7,17.1
		c-0.1-3.1,1.9-6.6,5.3-6.7c3.5-0.1,4.9,3.1,5,6.3L217.7,17.1L217.7,17.1z"/>
	<path class="st0" d="M235.4,27.2l2.3-0.1l-0.4-10.4c-0.1-3.1,1.1-6.9,5.3-7c3.2-0.1,4.5,2.1,4.7,5.7l0.4,11.4l2.3-0.1l-0.4-12
		c-0.1-4.1-2-7.1-6.6-7c-3.9,0.1-5.2,2.3-5.9,4l-0.1,0l-0.1-3.3l-2.2,0.1c0.2,1.5,0.3,3,0.3,4.4L235.4,27.2L235.4,27.2z"/>
	<path class="st2" d="M0,35c1.9,0.5,4.5,0.7,6.8,0.6c4.3-0.1,9.8-1.9,9.6-8c-0.1-3.1-1.8-5.6-5.1-5.9l0-0.1c2.6-1.1,4.7-2.8,4.6-6.3
		C15.6,9.8,10.3,8.9,7.1,9C4.5,9.1,2,9.7,0,10.6l0.4,4.1c1.8-0.9,3.7-1.5,5.7-1.6c2.3-0.1,4.4,0.7,4.5,3.2c0.1,2.2-2.1,3.5-5.6,3.6
		L2.8,20l0.1,4L5.4,24c3.3-0.1,5.7,0.8,5.8,3.8c0.1,2.6-3.1,3.8-5.3,3.8c-2,0.1-4-0.3-5.7-1L0,35L0,35z"/>
	<path class="st3" d="M35.5,9c-1.8-0.6-3.6-0.8-5.4-0.7c-8.3,0.3-10.3,8-10,15c0.2,6,2,11.9,9.1,11.6c5.8-0.2,8.4-4,8.2-9.5
		c-0.2-4.7-2.9-7.7-7.8-7.6c-2.2,0.1-3.7,0.9-4.9,2.7l-0.1-0.1c0-3.8,1.4-8,5.8-8.2c1.7-0.1,3.1,0.3,4.5,0.9L35.5,9L35.5,9z
		 M28.6,21.6c2.5-0.1,3.6,2.2,3.7,4.7c0.1,2.3-0.8,4.6-3.2,4.7c-2.5,0.1-3.6-2-3.7-4.4C25.2,24,26.1,21.7,28.6,21.6L28.6,21.6z"/>
	<polygon class="st2" points="39.8,14.4 42.4,17.6 46.7,13.9 47.4,33.8 52.5,33.6 51.6,7.9 47,8.1 39.8,14.4 	"/>
	<path class="st3" d="M67.4,29.2c-2.8,0.1-4.3-3-4.4-5.6c-0.1-2.9,0.9-6,4.2-6.1c2.9-0.1,4.2,2.5,4.3,5.7
		C71.6,26.4,70.5,29.1,67.4,29.2L67.4,29.2z M71.4,14l0.1,2.6l-0.1,0c-1.4-2.1-3.4-2.9-5.9-2.8c-5.7,0.2-7.8,5.5-7.7,10.1
		c0.2,5.1,2.5,9.5,8.1,9.3c2.8-0.1,4.9-1.6,5.8-3.2l0.1,0c0.1,3.3,0,7.4-5.4,7.6c-1.5,0.1-4-0.7-5.6-1.5l-0.3,4.2
		c2.4,0.9,4.6,1.1,6.6,1.1C75,41,76.9,36,76.7,30.9l-0.6-17.1L71.4,14L71.4,14z"/>
	<path class="st2" d="M81.9,32.6l4.9-0.2l-0.2-7c-0.1-2.7-0.3-7.7,3.7-7.9c0.9,0,1.8,0.1,2.2,0.3l-0.2-5c-0.5-0.1-1-0.1-1.5-0.1
		c-2.9,0.1-4.9,3.2-5,4.9l-0.1,0l-0.1-4.3l-4.4,0.2L81.9,32.6L81.9,32.6z"/>
	<path class="st3" d="M96.6,18.3c1.6-1.3,3.7-2.2,5.8-2.3c2.9-0.1,4.3,0.9,4.4,3.9l-2.7,0.1c-2.1,0.1-4.5,0.3-6.3,1.3
		c-1.8,1-3.1,2.7-3,5.5c0.1,3.6,3.5,5.5,6.8,5.4c2.2-0.1,4.7-1.3,5.7-3.5l0.1,0c0.1,0.6,0.1,1.8,0.3,2.8l4.3-0.2
		c-0.2-1.5-0.3-2.8-0.4-4.2c-0.1-1.4-0.2-2.8-0.2-4.7l-0.1-2.4c-0.2-5.6-2.7-7.9-8.4-7.7c-2.1,0.1-4.7,0.7-6.5,1.7L96.6,18.3
		L96.6,18.3z M99.4,26.5c-0.1-2.9,3.2-3.4,5.4-3.5l2.1-0.1c0.1,1.5-0.1,2.8-0.9,3.9c-0.7,1.1-1.9,1.8-3.4,1.8
		C100.9,28.7,99.5,28.1,99.4,26.5L99.4,26.5z"/>
	<path class="st3" d="M120.2,21.7c-0.1-2.5,0.7-6.1,3.9-6.2c3.2-0.1,4.5,3.2,4.6,5.9c0.1,2.7-0.9,6.2-4.1,6.3
		C121.3,27.8,120.3,24.3,120.2,21.7L120.2,21.7z M129.2,30.9l4.8-0.2l-1-27.6l-4.9,0.2l0.4,10.8l-0.1,0c-1.5-1.8-3.3-2.5-5.8-2.4
		c-5.8,0.2-7.8,4.9-7.6,10.1c0.2,5.2,2.5,9.9,8.3,9.7c2.3-0.1,4.3-0.9,5.7-2.8l0.1,0L129.2,30.9L129.2,30.9z"/>
</g>
</svg>
